<svg width="17" height="16" viewBox="0 0 17 16" fill="none" xmlns="http://www.w3.org/2000/svg">
<path d="M7.98324 13.3094C8.30104 13.1176 8.69892 13.1176 9.01671 13.3094L12.136 15.192C12.8933 15.6491 13.8275 14.9701 13.6266 14.1087L12.7988 10.5603C12.7144 10.1988 12.8373 9.82034 13.1179 9.57729L15.8787 7.18557C16.5468 6.60679 16.1905 5.50938 15.3098 5.43344L11.6753 5.12003C11.3065 5.08822 10.9854 4.85524 10.8407 4.51445L9.42048 1.16859C9.07566 0.356231 7.9243 0.356232 7.57947 1.16859L6.15925 4.51445C6.0146 4.85524 5.6935 5.08822 5.32466 5.12003L1.68714 5.43369C0.806913 5.5096 0.450353 6.60613 1.1176 7.18523L3.87446 9.57788C4.15419 9.82066 4.27682 10.1982 4.19316 10.559L3.36927 14.1123C3.16962 14.9734 4.1034 15.6511 4.86016 15.1943L7.98324 13.3094Z" fill="#C4C4C4"/>
</svg>
