<svg width="39" height="39" viewBox="0 0 39 39" fill="none" xmlns="http://www.w3.org/2000/svg">
<path d="M11.625 0.75H27.375C33.375 0.75 38.25 5.625 38.25 11.625V27.375C38.25 30.2592 37.1042 33.0253 35.0648 35.0648C33.0253 37.1042 30.2592 38.25 27.375 38.25H11.625C5.625 38.25 0.75 33.375 0.75 27.375V11.625C0.75 8.74077 1.89576 5.97467 3.93521 3.93521C5.97467 1.89576 8.74077 0.75 11.625 0.75ZM11.25 4.5C9.45979 4.5 7.7429 5.21116 6.47703 6.47703C5.21116 7.7429 4.5 9.45979 4.5 11.25V27.75C4.5 31.4812 7.51875 34.5 11.25 34.5H27.75C29.5402 34.5 31.2571 33.7888 32.523 32.523C33.7888 31.2571 34.5 29.5402 34.5 27.75V11.25C34.5 7.51875 31.4812 4.5 27.75 4.5H11.25ZM29.3438 7.3125C29.9654 7.3125 30.5615 7.55943 31.001 7.99897C31.4406 8.43851 31.6875 9.03465 31.6875 9.65625C31.6875 10.2779 31.4406 10.874 31.001 11.3135C30.5615 11.7531 29.9654 12 29.3438 12C28.7221 12 28.126 11.7531 27.6865 11.3135C27.2469 10.874 27 10.2779 27 9.65625C27 9.03465 27.2469 8.43851 27.6865 7.99897C28.126 7.55943 28.7221 7.3125 29.3438 7.3125ZM19.5 10.125C21.9864 10.125 24.371 11.1127 26.1291 12.8709C27.8873 14.629 28.875 17.0136 28.875 19.5C28.875 21.9864 27.8873 24.371 26.1291 26.1291C24.371 27.8873 21.9864 28.875 19.5 28.875C17.0136 28.875 14.629 27.8873 12.8709 26.1291C11.1127 24.371 10.125 21.9864 10.125 19.5C10.125 17.0136 11.1127 14.629 12.8709 12.8709C14.629 11.1127 17.0136 10.125 19.5 10.125ZM19.5 13.875C18.0082 13.875 16.5774 14.4676 15.5225 15.5225C14.4676 16.5774 13.875 18.0082 13.875 19.5C13.875 20.9918 14.4676 22.4226 15.5225 23.4775C16.5774 24.5324 18.0082 25.125 19.5 25.125C20.9918 25.125 22.4226 24.5324 23.4775 23.4775C24.5324 22.4226 25.125 20.9918 25.125 19.5C25.125 18.0082 24.5324 16.5774 23.4775 15.5225C22.4226 14.4676 20.9918 13.875 19.5 13.875Z" fill="#7C7C7C"/>
</svg>
