<svg width="30" height="30" viewBox="0 0 30 30" fill="none" xmlns="http://www.w3.org/2000/svg">
<path d="M12.0588 4.41177C14.0869 4.41177 16.032 5.21744 17.4661 6.65155C18.9002 8.08565 19.7059 10.0307 19.7059 12.0588C19.7059 13.953 19.0117 15.6941 17.8706 17.0353L18.1882 17.353H19.1176L25 23.2353L23.2353 25L17.3529 19.1177V18.1882L17.0353 17.8706C15.6941 19.0118 13.9529 19.7059 12.0588 19.7059C10.0307 19.7059 8.08562 18.9002 6.65151 17.4661C5.21741 16.032 4.41174 14.087 4.41174 12.0588C4.41174 10.0307 5.21741 8.08565 6.65151 6.65155C8.08562 5.21744 10.0307 4.41177 12.0588 4.41177ZM12.0588 6.76471C9.11763 6.76471 6.76468 9.11766 6.76468 12.0588C6.76468 15 9.11763 17.353 12.0588 17.353C15 17.353 17.3529 15 17.3529 12.0588C17.3529 9.11766 15 6.76471 12.0588 6.76471Z" fill="white"/>
</svg>
