<svg width="16" height="16" viewBox="0 0 16 16" fill="none" xmlns="http://www.w3.org/2000/svg">
<path d="M7.4833 13.1427C7.8011 12.9509 8.19898 12.9509 8.51678 13.1427L11.636 15.0254C12.3934 15.4825 13.3276 14.8035 13.1266 13.9421L12.2988 10.3936C12.2145 10.0321 12.3373 9.65369 12.6179 9.41063L15.3788 7.01891C16.0469 6.44014 15.6906 5.34272 14.8099 5.26678L11.1754 4.95337C10.8065 4.92156 10.4854 4.68858 10.3408 4.3478L8.92055 1.00194C8.57572 0.189574 7.42436 0.189575 7.07953 1.00194L5.65931 4.3478C5.51466 4.68858 5.19357 4.92157 4.82472 4.95337L1.1872 5.26704C0.306974 5.34294 -0.0495857 6.43948 0.617657 7.01857L3.37452 9.41123C3.65425 9.654 3.77688 10.0315 3.69322 10.3923L2.86933 13.9457C2.66968 14.8067 3.60346 15.4844 4.36022 15.0277L7.4833 13.1427Z" fill="#FFD705"/>
</svg>
