<svg width="39" height="39" viewBox="0 0 39 39" fill="none" xmlns="http://www.w3.org/2000/svg">
<path d="M19.5 0.824951C9.1875 0.824951 0.75 9.2437 0.75 19.6125C0.75 28.9874 7.6125 36.7687 16.575 38.1749V25.0499H11.8125V19.6125H16.575V15.4687C16.575 10.7625 19.3688 8.17495 23.6625 8.17495C25.7063 8.17495 27.8438 8.5312 27.8438 8.5312V13.1624H25.4812C23.1562 13.1624 22.425 14.6062 22.425 16.0875V19.6125H27.6375L26.7938 25.0499H22.425V38.1749C26.8433 37.4772 30.8666 35.2228 33.7686 31.8188C36.6706 28.4148 38.26 24.0855 38.25 19.6125C38.25 9.2437 29.8125 0.824951 19.5 0.824951Z" fill="#7C7C7C"/>
</svg>
