<svg width="41" height="33" viewBox="0 0 41 33" fill="none" xmlns="http://www.w3.org/2000/svg">
<path d="M40.1124 4.25C38.6687 4.90625 37.1124 5.3375 35.4999 5.54375C37.1499 4.55 38.4249 2.975 39.0249 1.08125C37.4687 2.01875 35.7437 2.675 33.9249 3.05C32.4437 1.4375 30.3624 0.5 28 0.5C23.5937 0.5 19.9937 4.1 19.9937 8.54375C19.9937 9.18125 20.0687 9.8 20.2 10.3813C13.525 10.0438 7.5812 6.8375 3.62495 1.98125C2.9312 3.1625 2.53745 4.55 2.53745 6.0125C2.53745 8.80625 3.9437 11.2812 6.1187 12.6875C4.78745 12.6875 3.54995 12.3125 2.46245 11.75C2.46245 11.75 2.46245 11.75 2.46245 11.8062C2.46245 15.7062 5.23745 18.9688 8.91245 19.7C8.23745 19.8875 7.52495 19.9813 6.7937 19.9813C6.28745 19.9813 5.7812 19.925 5.2937 19.8313C6.3062 23 9.24995 25.3625 12.7937 25.4188C10.0562 27.5938 6.58745 28.8687 2.79995 28.8687C2.16245 28.8687 1.52495 28.8312 0.887451 28.7562C4.44995 31.0437 8.68745 32.375 13.2249 32.375C28 32.375 36.1187 20.1125 36.1187 9.48125C36.1187 9.125 36.1187 8.7875 36.0999 8.43125C37.6749 7.30625 39.0249 5.88125 40.1124 4.25Z" fill="#7C7C7C"/>
</svg>
